<?xml version="1.0" standalone="no"?><!DOCTYPE svg PUBLIC "-//W3C//DTD SVG 1.1//EN" "http://www.w3.org/Graphics/SVG/1.1/DTD/svg11.dtd"><svg t="1607671410752" class="icon" viewBox="0 0 1024 1024" version="1.1" xmlns="http://www.w3.org/2000/svg" p-id="3194" xmlns:xlink="http://www.w3.org/1999/xlink" width="200" height="200"><defs><style type="text/css"></style></defs><path d="M512 87.04c-136.704 0-247.808 111.104-247.808 247.808 0 98.816 58.368 184.32 142.336 223.744-155.136 45.568-268.8 188.928-268.8 358.912 0 10.752 8.704 19.456 19.456 19.456 10.752 0 19.456-8.704 19.456-19.456 0-184.832 150.528-335.36 335.36-335.36 136.704 0 247.808-111.104 247.808-247.808S648.704 87.04 512 87.04z m0 456.192c-115.2 0-208.384-93.696-208.384-208.384 0-115.2 93.696-208.384 208.384-208.384 115.2 0 208.384 93.696 208.384 208.384 0 114.688-93.184 208.384-208.384 208.384z m226.816 76.8c-8.704-6.656-20.992-5.12-27.648 3.584-6.656 8.704-5.12 20.992 3.584 27.648 83.968 64 132.096 161.28 132.096 266.752 0 10.752 8.704 19.456 19.456 19.456 10.752 0 19.456-8.704 19.456-19.456 0.512-118.272-53.248-226.816-146.944-297.984z" p-id="3195" fill="#D53036"></path></svg>