<?xml version="1.0" standalone="no"?><!DOCTYPE svg PUBLIC "-//W3C//DTD SVG 1.1//EN" "http://www.w3.org/Graphics/SVG/1.1/DTD/svg11.dtd"><svg t="1607671269120" class="icon" viewBox="0 0 1024 1024" version="1.1" xmlns="http://www.w3.org/2000/svg" p-id="1967" xmlns:xlink="http://www.w3.org/1999/xlink" width="200" height="200"><defs><style type="text/css"></style></defs><path d="M885.760031 584.516594c-5.91164-5.519714-14.232143-8.558933-23.428595-8.558933-18.744923 0-32.349779 12.30321-32.349779 29.254278L829.981656 846.652849c0 19.080567-18.86772 37.118386-38.824237 37.118386L629.48118 883.771235c-18.708084 0-32.286334 12.30321-32.286334 29.255301 0 16.95209 13.57825 29.256324 32.286334 29.256324l161.67624 0c57.013505 0 103.397928-42.899042 103.397928-95.628988L894.555347 605.211938C894.555347 597.044932 891.514081 589.886905 885.760031 584.516594z" p-id="1968" fill="#D53036"></path><path d="M1007.07605 510.62877 536.554744 71.455425c-3.808746-3.565199-13.592576-8.567119-23.469528-8.567119-9.844206 0-19.654642 5.015224-23.476691 8.575306L19.085172 510.611373c-4.022617 7.543813-9.859555 18.656919-10.365068 22.347984 0.072655 8.169053 4.867868 17.647939 10.217712 27.697829 4.473895 3.38305 13.229303 7.371898 22.068621 7.371898 9.876951 0 19.659759-5.001921 23.452131-8.552793l60.656475-56.606229 0 342.743108c0 52.827159 46.39875 95.803973 103.430674 95.803973l168.148651 0c18.689664 0 32.255635-12.302187 32.255635-29.254278L428.950004 718.968795l200.533222 0c18.708084 0 32.28838-12.329816 32.28838-29.316699 0-16.915251-13.580297-29.192879-32.28838-29.192879L396.693346 660.459217c-18.708084 0-32.286334 12.277628-32.286334 29.192879l0 188.05912L234.986407 877.711216c-19.973914 0-38.858006-18.039865-38.858006-37.120432L196.128401 436.563914l316.89337-295.758004 448.609251 412.592966c4.542456 4.190439 14.32731 8.630564 23.538089 8.630564 9.841136 0 19.655665-5.0142 23.479761-8.576329 4.291746-4.000104 8.734942-12.734022 8.804527-20.494777C1016.946862 529.188474 1010.989173 517.9055 1007.07605 510.62877z" p-id="1969" fill="#D53036"></path></svg>